<mxfile host="app.diagrams.net" modified="2021-01-14T17:31:39.506Z" agent="5.0 (X11; Linux x86_64) AppleWebKit/537.36 (KHTML, like Gecko) Chrome/87.0.4280.88 Safari/537.36" etag="R_Elxw6dzu8OPVfi5ZsP" version="14.2.3" type="github">
  <diagram id="C5RBs43oDa-KdzZeNtuy" name="Page-1">
    <mxGraphModel dx="2068" dy="862" grid="1" gridSize="10" guides="1" tooltips="1" connect="1" arrows="1" fold="1" page="0" pageScale="1" pageWidth="1169" pageHeight="827" math="0" shadow="0">
      <root>
        <mxCell id="WIyWlLk6GJQsqaUBKTNV-0" />
        <mxCell id="WIyWlLk6GJQsqaUBKTNV-1" parent="WIyWlLk6GJQsqaUBKTNV-0" />
        <mxCell id="t4_anC5pGneVWEJHBO61-3" value="Actor" style="shape=umlActor;verticalLabelPosition=bottom;verticalAlign=top;html=1;outlineConnect=0;" vertex="1" parent="WIyWlLk6GJQsqaUBKTNV-1">
          <mxGeometry x="-810" y="30" width="50" height="100" as="geometry" />
        </mxCell>
        <mxCell id="t4_anC5pGneVWEJHBO61-6" value="&lt;b&gt;Client&#39;s Computer&amp;nbsp;&lt;/b&gt;" style="text;html=1;strokeColor=none;fillColor=none;align=center;verticalAlign=middle;whiteSpace=wrap;rounded=0;" vertex="1" parent="WIyWlLk6GJQsqaUBKTNV-1">
          <mxGeometry x="-835" y="180" width="100" height="50" as="geometry" />
        </mxCell>
        <mxCell id="t4_anC5pGneVWEJHBO61-10" value="" style="rounded=1;whiteSpace=wrap;html=1;absoluteArcSize=1;arcSize=14;strokeWidth=2;labelBorderColor=none;labelBackgroundColor=#ffffff;" vertex="1" parent="WIyWlLk6GJQsqaUBKTNV-1">
          <mxGeometry x="-735" y="-10" width="665" height="430" as="geometry" />
        </mxCell>
        <mxCell id="t4_anC5pGneVWEJHBO61-11" value="&lt;font style=&quot;font-size: 13px&quot;&gt;Client&#39;s Automation Request to our Server&lt;/font&gt;" style="rounded=0;whiteSpace=wrap;html=1;" vertex="1" parent="WIyWlLk6GJQsqaUBKTNV-1">
          <mxGeometry x="-710" y="30" width="90" height="80" as="geometry" />
        </mxCell>
        <mxCell id="t4_anC5pGneVWEJHBO61-12" value="" style="endArrow=classic;html=1;exitX=1;exitY=0.3333333333333333;exitDx=0;exitDy=0;exitPerimeter=0;" edge="1" parent="WIyWlLk6GJQsqaUBKTNV-1" source="t4_anC5pGneVWEJHBO61-3">
          <mxGeometry width="50" height="50" relative="1" as="geometry">
            <mxPoint x="30" y="100" as="sourcePoint" />
            <mxPoint x="-710" y="40" as="targetPoint" />
          </mxGeometry>
        </mxCell>
        <mxCell id="t4_anC5pGneVWEJHBO61-15" value="" style="verticalLabelPosition=bottom;verticalAlign=top;html=1;strokeWidth=2;shape=mxgraph.arrows2.arrow;dy=0.6;dx=40;notch=0;" vertex="1" parent="WIyWlLk6GJQsqaUBKTNV-1">
          <mxGeometry x="-620" y="60" width="60" height="20" as="geometry" />
        </mxCell>
        <mxCell id="t4_anC5pGneVWEJHBO61-18" value="&lt;font style=&quot;font-size: 13px&quot;&gt;Collection of requirements&lt;/font&gt;" style="rounded=0;whiteSpace=wrap;html=1;direction=west;labelBackgroundColor=#ffffff;" vertex="1" parent="WIyWlLk6GJQsqaUBKTNV-1">
          <mxGeometry x="-560" y="30" width="90" height="80" as="geometry" />
        </mxCell>
        <mxCell id="t4_anC5pGneVWEJHBO61-21" value="" style="verticalLabelPosition=bottom;verticalAlign=top;html=1;strokeWidth=2;shape=mxgraph.arrows2.arrow;dy=0.6;dx=40;notch=0;" vertex="1" parent="WIyWlLk6GJQsqaUBKTNV-1">
          <mxGeometry x="-470" y="60" width="60" height="20" as="geometry" />
        </mxCell>
        <mxCell id="t4_anC5pGneVWEJHBO61-29" value="&lt;span style=&quot;font-size: 13px&quot;&gt;Gets Process of Requirement&lt;/span&gt;" style="rounded=0;whiteSpace=wrap;html=1;direction=west;labelBackgroundColor=#ffffff;" vertex="1" parent="WIyWlLk6GJQsqaUBKTNV-1">
          <mxGeometry x="-410" y="30" width="90" height="80" as="geometry" />
        </mxCell>
        <mxCell id="t4_anC5pGneVWEJHBO61-30" value="" style="verticalLabelPosition=bottom;verticalAlign=top;html=1;strokeWidth=2;shape=mxgraph.arrows2.arrow;dy=0.6;dx=40;notch=0;" vertex="1" parent="WIyWlLk6GJQsqaUBKTNV-1">
          <mxGeometry x="-320" y="60" width="60" height="20" as="geometry" />
        </mxCell>
        <mxCell id="t4_anC5pGneVWEJHBO61-31" value="&lt;span style=&quot;font-size: 13px&quot;&gt;Connects our System Server by Node&lt;br&gt;&lt;/span&gt;" style="rounded=0;whiteSpace=wrap;html=1;direction=west;labelBackgroundColor=#ffffff;" vertex="1" parent="WIyWlLk6GJQsqaUBKTNV-1">
          <mxGeometry x="-260" y="30" width="90" height="80" as="geometry" />
        </mxCell>
        <mxCell id="t4_anC5pGneVWEJHBO61-35" style="edgeStyle=orthogonalEdgeStyle;rounded=0;orthogonalLoop=1;jettySize=auto;html=1;" edge="1" parent="WIyWlLk6GJQsqaUBKTNV-1" source="t4_anC5pGneVWEJHBO61-34" target="t4_anC5pGneVWEJHBO61-31">
          <mxGeometry relative="1" as="geometry">
            <Array as="points">
              <mxPoint x="-430" y="220" />
              <mxPoint x="-430" y="130" />
              <mxPoint x="-215" y="130" />
            </Array>
          </mxGeometry>
        </mxCell>
        <mxCell id="t4_anC5pGneVWEJHBO61-34" value="Our Controller Node" style="shape=ext;double=1;whiteSpace=wrap;html=1;aspect=fixed;labelBackgroundColor=none;" vertex="1" parent="WIyWlLk6GJQsqaUBKTNV-1">
          <mxGeometry x="-370" y="170" width="100" height="100" as="geometry" />
        </mxCell>
        <mxCell id="t4_anC5pGneVWEJHBO61-36" value="" style="verticalLabelPosition=bottom;verticalAlign=top;html=1;strokeWidth=2;shape=mxgraph.arrows2.arrow;dy=0.6;dx=40;notch=0;" vertex="1" parent="WIyWlLk6GJQsqaUBKTNV-1">
          <mxGeometry x="-270" y="210" width="60" height="20" as="geometry" />
        </mxCell>
        <mxCell id="t4_anC5pGneVWEJHBO61-37" value="&lt;span style=&quot;font-size: 13px&quot;&gt;Clients request Automation script will get performed&lt;br&gt;&lt;/span&gt;" style="rounded=0;whiteSpace=wrap;html=1;direction=west;labelBackgroundColor=#ffffff;" vertex="1" parent="WIyWlLk6GJQsqaUBKTNV-1">
          <mxGeometry x="-210" y="180" width="90" height="80" as="geometry" />
        </mxCell>
        <mxCell id="t4_anC5pGneVWEJHBO61-38" value="" style="verticalLabelPosition=bottom;verticalAlign=top;html=1;strokeWidth=2;shape=mxgraph.arrows2.arrow;dy=0.6;dx=40;notch=0;rotation=90;" vertex="1" parent="WIyWlLk6GJQsqaUBKTNV-1">
          <mxGeometry x="-195" y="280" width="60" height="20" as="geometry" />
        </mxCell>
        <mxCell id="t4_anC5pGneVWEJHBO61-39" value="&lt;span style=&quot;font-size: 13px&quot;&gt;Required Automation task Output on Client demand&lt;br&gt;&lt;/span&gt;" style="rounded=0;whiteSpace=wrap;html=1;direction=west;labelBackgroundColor=#ffffff;" vertex="1" parent="WIyWlLk6GJQsqaUBKTNV-1">
          <mxGeometry x="-210" y="320" width="90" height="80" as="geometry" />
        </mxCell>
        <mxCell id="t4_anC5pGneVWEJHBO61-40" value="" style="verticalLabelPosition=bottom;verticalAlign=top;html=1;strokeWidth=2;shape=mxgraph.arrows2.arrow;dy=0.6;dx=40;notch=0;rotation=-180;" vertex="1" parent="WIyWlLk6GJQsqaUBKTNV-1">
          <mxGeometry x="-270" y="350" width="60" height="20" as="geometry" />
        </mxCell>
        <mxCell id="t4_anC5pGneVWEJHBO61-41" value="&lt;font style=&quot;font-size: 12px&quot;&gt;Get back &amp;amp; connect to Clent&#39;s Server to deliver requested script&lt;/font&gt;" style="rounded=0;whiteSpace=wrap;html=1;direction=west;labelBackgroundColor=#ffffff;" vertex="1" parent="WIyWlLk6GJQsqaUBKTNV-1">
          <mxGeometry x="-360" y="320" width="90" height="80" as="geometry" />
        </mxCell>
        <mxCell id="t4_anC5pGneVWEJHBO61-42" value="" style="verticalLabelPosition=bottom;verticalAlign=top;html=1;strokeWidth=2;shape=mxgraph.arrows2.arrow;dy=0.6;dx=40;notch=0;rotation=-180;" vertex="1" parent="WIyWlLk6GJQsqaUBKTNV-1">
          <mxGeometry x="-420" y="350" width="60" height="20" as="geometry" />
        </mxCell>
        <mxCell id="t4_anC5pGneVWEJHBO61-53" style="edgeStyle=orthogonalEdgeStyle;rounded=0;orthogonalLoop=1;jettySize=auto;html=1;" edge="1" parent="WIyWlLk6GJQsqaUBKTNV-1" source="t4_anC5pGneVWEJHBO61-43" target="t4_anC5pGneVWEJHBO61-34">
          <mxGeometry relative="1" as="geometry">
            <Array as="points">
              <mxPoint x="-465" y="300" />
              <mxPoint x="-320" y="300" />
            </Array>
          </mxGeometry>
        </mxCell>
        <mxCell id="t4_anC5pGneVWEJHBO61-43" value="&lt;font style=&quot;font-size: 13px&quot;&gt;Connects to our Controller &amp;amp; Controller will delivered to the Client&lt;/font&gt;" style="rounded=0;whiteSpace=wrap;html=1;direction=west;labelBackgroundColor=#ffffff;" vertex="1" parent="WIyWlLk6GJQsqaUBKTNV-1">
          <mxGeometry x="-510" y="320" width="90" height="80" as="geometry" />
        </mxCell>
        <mxCell id="t4_anC5pGneVWEJHBO61-45" value="Actor" style="shape=umlActor;verticalLabelPosition=bottom;verticalAlign=top;html=1;outlineConnect=0;" vertex="1" parent="WIyWlLk6GJQsqaUBKTNV-1">
          <mxGeometry x="-40" y="30" width="50" height="100" as="geometry" />
        </mxCell>
        <mxCell id="t4_anC5pGneVWEJHBO61-46" value="&lt;b&gt;Our Automatic System&amp;nbsp; handler&lt;/b&gt;" style="text;html=1;strokeColor=none;fillColor=none;align=center;verticalAlign=middle;whiteSpace=wrap;rounded=0;" vertex="1" parent="WIyWlLk6GJQsqaUBKTNV-1">
          <mxGeometry x="-65" y="170" width="100" height="50" as="geometry" />
        </mxCell>
        <mxCell id="t4_anC5pGneVWEJHBO61-47" value="" style="endArrow=classic;html=1;exitX=0;exitY=0.3333333333333333;exitDx=0;exitDy=0;exitPerimeter=0;" edge="1" parent="WIyWlLk6GJQsqaUBKTNV-1" source="t4_anC5pGneVWEJHBO61-45">
          <mxGeometry width="50" height="50" relative="1" as="geometry">
            <mxPoint x="-40" y="65" as="sourcePoint" />
            <mxPoint x="-95" y="95" as="targetPoint" />
          </mxGeometry>
        </mxCell>
        <mxCell id="t4_anC5pGneVWEJHBO61-55" value="Our Security Gateways" style="shape=ext;double=1;whiteSpace=wrap;html=1;aspect=fixed;labelBackgroundColor=none;" vertex="1" parent="WIyWlLk6GJQsqaUBKTNV-1">
          <mxGeometry x="-590" y="170" width="100" height="100" as="geometry" />
        </mxCell>
        <mxCell id="t4_anC5pGneVWEJHBO61-59" value="" style="endArrow=classic;html=1;" edge="1" parent="WIyWlLk6GJQsqaUBKTNV-1" source="t4_anC5pGneVWEJHBO61-43">
          <mxGeometry width="50" height="50" relative="1" as="geometry">
            <mxPoint x="-570" y="320" as="sourcePoint" />
            <mxPoint x="-520" y="270" as="targetPoint" />
            <Array as="points">
              <mxPoint x="-590" y="360" />
              <mxPoint x="-590" y="320" />
              <mxPoint x="-520" y="320" />
            </Array>
          </mxGeometry>
        </mxCell>
        <mxCell id="t4_anC5pGneVWEJHBO61-62" value="" style="endArrow=classic;html=1;entryX=1;entryY=1;entryDx=0;entryDy=0;" edge="1" parent="WIyWlLk6GJQsqaUBKTNV-1" target="t4_anC5pGneVWEJHBO61-11">
          <mxGeometry width="50" height="50" relative="1" as="geometry">
            <mxPoint x="-430" y="160" as="sourcePoint" />
            <mxPoint x="-570" y="130" as="targetPoint" />
            <Array as="points">
              <mxPoint x="-540" y="160" />
            </Array>
          </mxGeometry>
        </mxCell>
      </root>
    </mxGraphModel>
  </diagram>
</mxfile>
